<?xml version="1.0" standalone="no"?>
<!DOCTYPE svg PUBLIC "-//W3C//DTD SVG 20010904//EN"
 "http://www.w3.org/TR/2001/REC-SVG-20010904/DTD/svg10.dtd">
<svg version="1.0" xmlns="http://www.w3.org/2000/svg"
 width="512.000000pt" height="512.000000pt" viewBox="0 0 512.000000 512.000000"
 preserveAspectRatio="xMidYMid meet">
<metadata>
Created by potrace 1.14, written by Peter Selinger 2001-2017
</metadata>
<g transform="translate(0.000000,512.000000) scale(0.100000,-0.100000)"
fill="#000000" stroke="none">
<path d="M2506 4465 c-60 -44 -181 -159 -276 -260 -110 -118 -129 -140 -209
-247 l-73 -97 -41 26 c-23 14 -60 38 -82 53 -37 25 -254 150 -260 150 -2 0
-43 19 -92 41 -48 23 -139 61 -201 85 -144 56 -179 59 -223 21 -31 -27 -173
-312 -225 -452 -34 -94 -100 -305 -108 -350 -2 -11 -11 -54 -19 -95 -9 -41
-19 -95 -22 -120 -4 -24 -8 -47 -10 -50 -2 -4 -59 0 -127 6 -171 18 -442 26
-473 14 -14 -5 -34 -24 -45 -42 -20 -31 -21 -44 -16 -188 3 -85 8 -174 11
-197 3 -24 7 -61 10 -83 4 -36 28 -183 39 -235 52 -259 176 -559 322 -781 372
-565 917 -887 1681 -994 232 -32 748 -35 948 -5 17 3 47 7 68 10 486 67 904
240 1222 507 325 272 577 653 696 1053 45 153 84 344 95 464 3 31 7 65 9 76 2
11 7 93 11 182 6 154 5 163 -15 192 -33 46 -67 52 -262 45 -95 -3 -176 -7
-179 -9 -3 -2 -45 -6 -95 -10 -49 -4 -94 -8 -99 -9 -9 -1 -19 36 -29 104 -12
85 -72 319 -109 425 -68 197 -207 491 -255 539 -39 40 -71 39 -193 -5 -124
-45 -302 -126 -409 -186 -51 -29 -95 -53 -97 -53 -2 0 -44 -26 -92 -58 -48
-32 -92 -61 -98 -65 -7 -4 -32 21 -63 62 -124 168 -285 342 -435 474 -74 65
-90 74 -124 74 -21 0 -46 -6 -56 -12z m139 -313 c339 -332 553 -672 678 -1077
38 -121 58 -223 82 -405 5 -42 6 -334 0 -370 -2 -14 -6 -50 -10 -80 -19 -167
-92 -410 -169 -567 -97 -198 -208 -355 -365 -517 -80 -82 -242 -222 -289 -250
-30 -18 -261 184 -429 375 -51 59 -157 218 -206 309 -80 148 -162 366 -183
484 -3 17 -9 49 -14 71 -5 22 -12 67 -15 100 -4 33 -9 69 -11 80 -6 29 -5 313
1 365 30 249 76 426 166 638 63 146 166 333 239 432 95 128 131 173 189 240
67 75 242 250 251 250 3 0 41 -35 85 -78z m-1220 -232 c113 -54 346 -190 403
-236 2 -1 -20 -49 -50 -106 -30 -57 -65 -130 -78 -163 -13 -33 -27 -64 -31
-70 -16 -21 -88 -245 -109 -340 -12 -55 -25 -104 -29 -108 -5 -4 -37 8 -73 27
-95 50 -333 144 -405 159 -5 1 -44 11 -88 22 l-80 21 1 39 c1 39 10 105 19
135 2 8 6 27 9 41 13 79 95 343 131 424 7 17 26 59 42 95 15 36 40 88 56 117
l28 51 92 -37 c51 -21 124 -53 162 -71z m2576 10 c112 -230 211 -548 234 -750
l6 -56 -63 -13 c-145 -31 -393 -121 -524 -190 -32 -17 -61 -27 -65 -23 -3 4
-16 50 -28 102 -12 52 -29 118 -38 145 -10 28 -18 52 -18 55 -14 54 -99 253
-153 358 -35 68 -62 125 -60 127 17 14 190 122 253 157 140 79 394 191 407
179 4 -3 26 -44 49 -91z m-3611 -955 c152 -10 209 -16 300 -31 14 -2 41 -7 60
-10 223 -36 465 -120 666 -231 l81 -45 -1 -147 c0 -129 7 -268 18 -326 2 -11
7 -42 10 -70 19 -130 96 -379 163 -525 42 -89 133 -246 195 -333 74 -104 129
-169 240 -281 54 -55 98 -101 98 -103 0 -3 -15 -2 -32 1 -18 3 -60 8 -93 11
-87 10 -290 51 -394 80 -199 56 -385 136 -546 235 -293 180 -574 496 -724 815
-122 258 -201 602 -212 920 0 22 -1 43 0 46 1 3 18 5 39 3 20 -1 80 -5 132 -9z
m4514 -1 c-1 -5 -5 -58 -8 -119 -4 -60 -9 -119 -11 -130 -2 -11 -7 -42 -10
-70 -11 -92 -16 -119 -52 -260 -59 -231 -144 -427 -267 -615 -149 -227 -377
-449 -612 -594 -162 -101 -490 -227 -674 -259 -14 -3 -63 -12 -110 -21 -47 -8
-105 -18 -130 -20 -25 -3 -64 -8 -87 -11 -24 -3 -43 -3 -43 -1 0 2 34 37 76
77 368 357 594 826 641 1334 4 44 7 146 6 226 l-1 146 61 36 c127 73 391 180
498 201 13 2 53 11 89 20 36 8 83 17 105 20 22 4 65 11 95 16 70 12 126 17
270 26 63 3 116 7 117 9 8 6 48 -4 47 -11z"/>
</g>
</svg>
